# xmcd
#
# Track frame offsets:
#	150
#	15702
#	30742
#	46549
#	69423
#	88578
#	106378
#	122589
#	140794
#	155049
#	175766
#
# Disc length: 2535 seconds
# Revision: 0
# Processed by: cddbd v1.5.2PL0 Copyright (c) Steve Scherf et al.
# Submitted via: dBpowerAMP V12.0
#
DISCID=8b09e50b
DTITLE=Joni Harms - From Oregon To Ireland
DYEAR=2014
DGENRE=Country
TTITLE0=After All
TTITLE1=He's More Than Your Eye's Can See
TTITLE2=Old Fashioned Girl
TTITLE3=Buddy And Me
TTITLE4=That's Faith
TTITLE5=The Only Thing Bluer' Than His Eyes
TTITLE6=I Need A Wife
TTITLE7=Blue Montana Moon
TTITLE8=Two Steppin' Texas Blues
TTITLE9=Harms Way
TTITLE10=We Work It Out
EXTD=
EXTT0=
EXTT1=
EXTT2=
EXTT3=
EXTT4=
EXTT5=
EXTT6=
EXTT7=
EXTT8=
EXTT9=
EXTT10=
PLAYORDER=
